<?xml version="1.0" encoding="UTF-8" standalone="no"?>
<svg
   xmlns:dc="http://purl.org/dc/elements/1.1/"
   xmlns:cc="http://creativecommons.org/ns#"
   xmlns:rdf="http://www.w3.org/1999/02/22-rdf-syntax-ns#"
   xmlns:svg="http://www.w3.org/2000/svg"
   xmlns="http://www.w3.org/2000/svg"
   viewBox="0 0 3932.24 4491"
   height="4491"
   width="3932.24"
   xml:space="preserve"
   id="svg2"
   version="1.1"><metadata
     id="metadata8"><rdf:RDF><cc:Work
         rdf:about=""><dc:format>image/svg+xml</dc:format><dc:type
           rdf:resource="http://purl.org/dc/dcmitype/StillImage" /></cc:Work></rdf:RDF></metadata><defs
     id="defs6" /><g
     transform="matrix(1.3333333,0,0,-1.3333333,0,4491)"
     id="g10"><g
       transform="scale(0.1)"
       id="g12"><g
         transform="scale(2.06638)"
         id="g14"><path
           id="path16"
           style="fill:#000000;fill-opacity:1;fill-rule:nonzero;stroke:none"
           d="m 13432.5,4608.64 c 53,152.97 112.9,509.92 -67.3,498.65 -147.8,-9.24 -79,-236.7 -107.8,-390.83 -206.8,80.82 -367,207.9 -566,296.51 8.8,152.92 182.5,522.12 0,552.46 -174.3,29.04 -141.7,-286.1 -188.7,-431.19 -110.4,42.3 -203.8,101.63 -296.5,161.74 52.5,243.95 136.3,456.64 188.7,700.64 99.3,-70.31 63.2,-266.31 202.2,-269.46 277.7,-6.29 -68.8,429.6 -80.9,619.88 -15.7,246.42 135.3,342.05 134.8,512.06 26,28.16 60.8,-77.87 148.1,-53.87 153.4,42.01 26.5,294.14 -53.8,363.83 71.1,283.73 157.3,552.37 229.1,835.47 72.6,-42.15 66.7,-141.31 161.7,-134.73 198.9,13.7 19.8,356.13 -67.4,431.19 24.6,96.69 51.2,191.3 80.8,283.01 25.4,37.31 57.4,-59.48 121.3,-53.87 191,16.6 34,320.61 -13.4,431.19 35.8,125.88 71.9,251.46 107.8,377.33 5.9,-102.35 217.2,-358.07 282.9,-161.73 49,146.1 -180.2,371.81 -188.7,498.6 48.6,135.65 86.8,281.65 121.4,431.28 62.7,-84.4 101.7,-245.16 229,-175.23 142.9,78.43 -84.4,372.73 -134.7,485.13 46.6,108.5 45.2,186.1 94.4,296.4 50.7,44.8 128.3,31 148.2,107.9 17.4,67.6 -66.3,140.1 -67.4,215.5 -2.3,152.3 121.6,260.3 121.7,402.9 -0.2,5 -0.3,9.9 -0.5,14.9 0.3,-5 0.5,-9.9 0.5,-14.9 70.1,-2354.82 48.5,-4801.66 93.9,-7181.08 -218.3,109.66 -423.1,232.67 -633.4,350.32 z M 7745.77,552.512 c 122.97,191.495 359.52,386.182 525.65,579.418 153.07,58.7 637.93,115.42 619.83,296.51 -13.55,135.79 -188.64,93.21 -282.96,26.96 -18.2,38.03 46.85,85.46 80.82,121.22 111.11,117.07 263.65,260.94 363.87,390.78 230.6,-124.61 576.03,184.48 215.6,215.64 140.82,142.14 266.4,299.51 417.78,431.24 244.19,-105.06 499.14,135.65 188.64,202.09 128.4,163.57 290.7,293.27 417.7,458.2 75.6,-3.73 146.5,-2.71 188.7,26.9 23.6,61.75 23.6,86.58 0,148.28 109.1,142.43 236.9,266.22 363.8,390.83 96.8,-65.86 298.4,-140.15 310,13.5 5.6,75.25 -72.3,116.29 -148.2,148.18 218.2,266.8 469.1,501.03 700.7,754.61 40,-86.43 285.4,-227.55 296.4,-40.41 6.9,117.4 -141.8,123.5 -148.2,188.69 -6.9,69.06 164.3,147.31 188.7,202.14 135.9,-48.25 237.3,-131 363.8,-188.64 -8.3,-79.22 -352.4,-473.15 -80.8,-471.65 152.9,0.83 175.3,253.88 269.5,350.38 209.2,-87.36 384.7,-208.29 579.4,-310.02 -56.2,-63.54 -210,-237.85 -67.3,-296.41 123.4,-50.76 194.2,112.03 256,188.64 201.4,-104.04 389.9,-220.96 592.9,-323.41 C 11917.5,2858.19 9803.42,1733.42 7745.77,552.512 Z M 7166.4,283.007 C 5635.51,1874.05 4076.37,3508.65 2598.11,5107.29 c 309.23,87.49 397.99,-106.08 552.51,-269.55 192.07,-203.26 368.65,-379.7 566.01,-592.93 65.3,-70.6 353.75,-446.67 404.23,-188.63 20.64,105.4 -180.35,244.29 -215.64,282.95 -244.21,268.15 -468.2,525.56 -700.69,781.61 206.62,0 413.21,0 619.87,0 146.64,-90.25 215.6,-459.69 390.79,-444.74 250.51,21.54 -74.67,364.55 -107.8,444.74 242.54,0 485.15,0 727.69,0 64.07,-133.47 126.2,-257.6 202.09,-417.68 55.7,-117.46 113.67,-364.07 242.64,-363.93 226.39,0.29 17.62,313.79 -40.45,431.24 -70.42,142.42 -110.29,246.37 -161.74,336.92 211.15,31.41 480.65,4.55 714.2,13.45 35.18,-149.87 3.15,-395.62 148.28,-390.78 146.73,4.84 93.3,233.84 67.41,390.78 197.64,0 395.23,0 592.92,0 91.18,-181.09 -50.57,-656.41 148.18,-673.74 226.97,-19.84 55.7,473.78 80.82,673.74 202.19,0 404.33,0 606.42,0 42.83,-152.05 -58.51,-347.9 107.87,-350.37 129.31,-1.98 132.12,190.87 107.73,350.37 229.14,0 458.24,0 687.29,0 36.53,-114.01 -340.36,-522.12 -121.28,-606.37 169.24,-65.09 294.62,475.08 350.37,606.37 202.14,0 404.28,0 606.43,0 -60.59,-89.48 -111.89,-202.09 -202.15,-336.87 -59.47,-88.85 -308.51,-363.14 -107.82,-404.28 147.22,-30.24 244.73,235.34 309.97,336.87 97.9,152.39 179.2,257.89 242.54,404.28 238.1,0 476.2,0 714.2,0 -106,-162.65 -276.18,-379.21 -431.19,-565.96 -53.72,-64.75 -228.08,-233.26 -67.46,-283.01 146.44,-45.34 375.45,321.92 431.35,390.83 139.9,172.76 233.2,305.41 350.3,458.14 215.7,0 431.2,0 646.8,0 8.9,-66.68 -102.4,-142.86 -175.2,-215.59 -143.4,-143.54 -264.6,-285.38 -417.7,-458.15 -36,-40.74 -274.5,-280.2 -80.9,-323.46 116.1,-25.89 230.9,170.15 283,229.1 242.5,273.9 489.7,526.62 741.2,768.1 98.8,0 197.7,0 296.5,0 32,-44.08 -65.1,-87.64 -107.8,-134.73 C 10169,3410.46 8607.52,1859.92 7166.4,283.007 Z M 347.7,4056.18 c 313.688,5.95 559.364,-309.14 889.34,-242.6 81.8,242.89 -438.784,285.91 -592.918,390.78 76.229,63.49 128.16,85.41 215.603,134.77 48.453,27.4 146.335,116.05 229.075,121.28 102.65,6.53 258.3,-84.3 350.41,-121.28 116.26,-46.6 401.89,-228.32 417.77,-26.9 13.6,172.96 -409.49,205.67 -512.1,282.96 267.96,176.68 566.88,322.44 848.97,485.14 189.14,-30.97 248.77,-191.44 377.31,-282.95 -256.17,-97.57 -63.62,-385.46 161.72,-175.24 157.51,-192.85 351.19,-349.5 498.59,-552.46 -163.87,-78.74 22.11,-279.67 161.69,-175.24 237.91,-184.28 407.01,-437.48 633.4,-633.37 -0.55,-44.33 -22.77,-67.03 -13.5,-121.28 24.92,-60.39 94.57,-76.07 188.65,-67.36 156.19,-176.16 318.64,-346.17 485.16,-512.06 -329.74,-14.81 -81.39,-345.82 161.66,-188.64 109.27,-97.46 250.14,-234.9 310.01,-336.96 -131.68,12.29 -299.27,55.7 -310.01,-80.82 -16.55,-209.45 334.98,-80.82 498.65,-121.28 159.41,-39.44 309.52,-363.72 404.28,-417.73 -127.95,36.58 -290.41,50.47 -296.51,-67.41 -9.05,-174.85 411.44,-142.86 565.97,-202.1 C 6205.2,952.343 6388.56,758.427 6573.48,566.015 4518.67,1695.96 2391.98,2870.77 347.7,4056.18 Z m -26.981,7398.12 c 48.11,-101.7 66.798,-223.1 107.802,-363.8 43.239,-148.4 104.149,-285.5 80.896,-471.7 -16.706,-133.5 -18.099,-302.8 -40.449,-485.1 -20.115,-163.71 -87.088,-367.54 40.449,-390.86 196.32,-35.72 137.425,289.76 175.151,444.76 14.486,-103 107.977,-208.56 121.276,-377.3 18.098,-229.34 -224.513,-594.43 -13.433,-619.93 85.831,-10.31 129.134,62.57 134.703,161.78 62.239,-142.81 95.096,-327.53 148.276,-512.1 48.81,-169.53 142.43,-347.76 148.22,-498.65 5.36,-141.12 -82.43,-283.93 94.33,-309.87 104.56,-355.26 227.09,-816.84 350.37,-1239.8 40.39,-138.6 123.12,-296.8 121.28,-404.28 -3.9,-220.39 -242.93,-404.57 -202.17,-579.47 59.73,-256.05 316.76,108.94 296.5,215.6 88.07,-221.89 143.54,-476.25 215.6,-714.25 -224.51,-175.18 -514.08,-285.42 -754.64,-444.64 31.26,83.48 5.57,181.09 -80.86,188.64 -150.55,13.26 -213.24,-302.75 -282.957,-390.73 -191.373,-91.66 -357.475,-208.58 -552.542,-296.56 43.373,100.66 114.172,228.81 175.226,377.38 59.694,145.56 229.315,480.01 40.375,498.6 -132.125,13.06 -173.901,-246.23 -215.601,-350.42 -60.078,-150.17 -108.324,-282.28 -188.69,-377.23 41.524,2298.8 40.619,4639.9 80.888,6939.93 z m 6603.031,2533.4 c -48.59,-144.6 -174.94,-328.1 -255.96,-485.1 -211.19,-9.4 -390.53,-66.4 -606.42,-107.8 -159.02,-30.6 -522.31,-19.4 -539.06,-161.7 -23.95,-204.7 352.99,-90 471.65,-67.4 196.91,37.5 365.42,81.5 539.06,107.8 -81.79,-192.2 -196.67,-351.3 -283.01,-539 -329.66,-5.9 -668.8,-84.2 -1051.11,-134.8 -128.54,-16.9 -272.94,-23.2 -283.01,-121.2 -20.52,-202.3 420.69,-88.3 566.01,-67.4 233.75,33.6 419.39,89.1 633.34,107.8 -125.49,-269.8 -277.69,-512.9 -417.74,-768.2 -165.75,11.2 -302.99,32.8 -498.6,54 -144.26,15.6 -423.82,88 -431.2,-67.4 -9.89,-209.2 642.68,-128.1 808.53,-188.6 -111.26,-266.1 -271.74,-483 -390.78,-741.3 -129.65,39.1 -391.85,180.4 -390.82,-13.4 0.7,-123.7 160.12,-123 269.54,-175.2 -113.92,-263.3 -272.74,-481.9 -390.84,-741.14 -91.37,45.63 -192.74,90.35 -323.4,161.74 -105.68,57.7 -366.28,281.6 -404.3,80.8 -24.33,-129.01 179.02,-185.44 283.03,-242.54 128.58,-70.51 214.07,-136.37 323.44,-188.64 -117.45,-255.42 -266.25,-479.44 -390.87,-727.7 -107.79,32.38 -404.85,304.69 -444.6,94.32 -28.05,-147.94 230.22,-208.72 336.87,-283 -123.15,-236.22 -263.28,-455.44 -377.32,-700.75 -173.34,39.11 -332,459.55 -539.03,417.79 -241.92,-48.83 81.31,-290.27 161.72,-363.88 107.62,-98.57 182.77,-173.92 256.04,-269.5 -165.86,-274.44 -318.42,-562 -471.64,-848.97 -92.91,96.88 -140.39,210.94 -229.12,350.37 -53.98,84.78 -157.77,314.41 -269.47,309.91 -247.42,-9.73 68.78,-413.09 121.27,-498.55 97.18,-158.44 179.61,-277.73 256.04,-377.33 -105.88,-186.12 -213.58,-370.45 -310,-566.01 -72.81,109.95 -111.18,235.19 -175.16,390.83 -40.79,99.2 -102.75,337.16 -215.6,336.91 -234.81,-0.72 27.5,-426.35 67.36,-525.55 70.63,-175.91 112.46,-327.15 188.7,-431.29 -76.31,-152.78 -164.51,-293.7 -242.62,-444.64 C 1621.08,7746.2 985.105,9958.23 361.099,12182 2554.11,12778.5 4740.82,13381.3 6923.75,13987.7 Z m 94.32,2034.8 c 31.41,-170.7 4.55,-399.7 13.55,-592.9 -105.06,-85.7 -374.33,-121 -377.33,-269.5 -4.11,-206.8 283.11,-47.2 377.33,27 0,-130.3 0,-260.5 0,-390.8 -134,-53.4 -374.18,-61.7 -377.33,-202.1 -4.26,-189.2 243.86,-59 377.33,-27 0,-107.8 0,-215.6 0,-323.4 -180.85,-34.8 -342.53,-88.8 -512.1,-134.8 -23.77,218.5 -255.72,151.2 -283.01,-80.8 -248.36,-61.6 -493.38,-126.5 -727.7,-202.2 -91.07,145.2 -256.87,45.6 -296.41,-80.8 -149.34,-25.8 -273.23,-77.1 -417.77,-107.8 102,363.5 -335.62,98.7 -323.43,-94.4 -165.16,-41.5 -331.16,-82 -485.08,-134.8 -87.44,242 -357.97,31.9 -417.77,-107.7 -203.4,-54.7 -504.29,-151 -655.25,-174.5 105.39,19.8 272.09,243.9 89.27,282.2 -123.5,26 -533.71,-298 -592.92,-431.2 -54.44,-12.9 -107.27,-27.5 -161.72,-40.3 -12.98,48 3.58,154.9 -80.82,175.1 -129.76,31.1 -389.3,-225.8 -431.2,-323.4 -265.25,-58.2 -505.14,-141.8 -768.187,-202.1 2006.127,1156.1 4037.077,2287.5 6050.547,3436.2 z m 121.37,-2115.6 c 1591.63,-2828.4 3192.06,-5719.88 4729.96,-8557.06 -3141.58,-7.26 -6313.16,15.53 -9433.01,-13.5 -24.51,43.07 23.42,89.52 40.44,121.27 1116.1,2088.19 2312.8,4182.87 3463.27,6279.69 399.25,727.7 826.08,1438.7 1199.34,2169.6 z m 134.73,700.7 c 144.02,-11.4 413.23,-168.2 431.24,13.5 14.61,147.6 -266.7,171.5 -431.24,202.1 0,112.4 0,224.6 0,336.9 98.96,-70.6 326.46,-162.6 336.92,0 9.43,147.6 -241,159.7 -336.92,242.6 0,206.6 0,413.2 0,619.8 2026.83,-1135.3 4034.93,-2289.6 6064.03,-3422.8 -173.2,6.6 -375.1,100.9 -566,134.8 -6.5,42.5 24.3,47.5 13.5,94.3 -41.5,36.6 -575,450 -633.3,242.6 -30.5,-108.6 80.6,-146 148.2,-188.7 -324,32.5 -519.1,217.7 -822,431.3 -78.3,55.1 -170.3,113.9 -269.5,188.6 -86.9,65.4 -353.3,299.3 -377.4,80.9 -10.6,-97 162.4,-191.5 229.1,-242.6 107.6,-82.3 174.6,-132.3 269.5,-188.6 -224.1,18.4 -471.1,130.6 -714.2,175.1 -100.4,41.4 -220.1,350.4 -363.8,336.9 -100.4,-9.5 -111.9,-147.2 -53.9,-215.6 -307.04,83.7 -620.01,161.6 -916.37,256 -5.23,42.4 -16.99,172.8 -80.87,229.1 -76.07,13.8 -141.55,38.1 -229.05,40.4 -32.76,-109.3 67.32,-156.8 53.91,-202.1 -294.23,69.6 -565.19,162.5 -862.47,229.1 39.59,231.8 -342.29,440.7 -256.05,80.9 -221.69,43.2 -409.17,120.8 -633.33,161.7 0,121.3 0,242.5 0,363.8 z M 13944.6,12182 c -615.9,-2227.35 -1271.9,-4414.79 -1900,-6630.02 -110.4,145.66 -184,328.11 -283,485.1 126.3,429.83 264.4,870.7 390.8,1347.57 31.4,118.71 135.9,393.88 -27,404.24 -119.2,7.69 -156.5,-252.09 -175.1,-323.37 -104.8,-401.62 -216.6,-781.13 -336.9,-1145.43 -123.5,204.51 -238.9,417.01 -350.5,633.37 121.3,282.62 243.9,570.62 363.9,902.84 34.7,95.77 102.3,259.44 -40.4,269.5 -130.1,9.25 -222.4,-363.14 -256.1,-444.64 -79.1,-191.88 -125.6,-330.96 -202,-485.19 -98.4,148.66 -173.2,320.89 -269.6,471.64 34,178.72 387.8,384.54 350.4,566.02 -45.2,219.07 -241.1,-30.59 -296.4,-107.83 -66.3,-92.23 -113.6,-150.4 -161.8,-229.04 -101.6,114.06 -153.7,277.63 -242.6,404.23 82.5,109.18 171.9,189.51 296.5,296.51 71.2,61.12 451.4,319.2 215.6,390.73 -113.9,34.6 -246.8,-137.34 -336.9,-215.59 -126.6,-110.05 -202.3,-196.53 -296.5,-256.06 -72.8,156.32 -160,298.11 -242.5,444.74 98.6,154.48 586.6,212.6 377.3,458.15 -217.5,-25.02 -292,-193.14 -498.6,-229.1 -82.48,146.58 -169.78,288.48 -242.52,444.74 127.32,119.05 500.12,164.59 377.32,404.29 -220.67,28.6 -306.52,-160.92 -485.14,-215.6 -89.24,171.26 -201.22,319.9 -269.51,512 99.02,37.8 225.37,47.8 229,148.3 6.24,169.4 -227.55,90.2 -350.32,40.4 -68.67,142.4 -162.12,260.1 -215.6,417.7 150.07,67 582.96,42.7 552.52,242.6 -31.75,208.6 -556.77,-61.9 -673.79,-67.4 -89.87,211.1 -218.59,383.4 -309.96,592.9 150.11,19.1 267.47,22.6 444.74,54 106.7,18.8 342.14,34.9 336.86,161.6 -6.62,158.3 -282.42,75.9 -417.78,54 -177.36,-28.8 -335.17,-69.4 -471.64,-54 -147.9,198.1 -258.33,433.5 -377.33,660.4 120.89,31.2 834.16,-149.8 795.11,94.3 -31.12,194.4 -785,50.3 -929.79,134.7 -87.74,168.4 -185.69,326.5 -269.6,498.7 283.59,-46.9 564.61,-139.9 889.43,-188.8 72.93,-10.9 236.3,-33.6 242.55,81 9,162.2 -454.18,183.2 -606.33,215.5 -255.37,54.4 -456.5,96.6 -673.83,148.3 -74.63,136.5 -144.85,277.5 -229.1,404.2 2172.2,-563.3 4381.31,-1206.5 6576.11,-1792.2 z m 283,134.7 c -258.9,199.5 -554,361.2 -848.9,525.6 -1907.1,1063.2 -3823.39,2170.9 -5740.66,3247.6 -239.55,134.6 -424.8,278.3 -660.33,175.3 C 4837.11,15038 2642.91,13802 495.915,12599.7 c -141.253,-79.1 -296.774,-159 -404.2673,-283 -30.1384,-2323.18 3.9698,-4848.04 -53.8835,-7263.37 -7.7241,-322.11 -80.9651,-790.85 0,-1037.61 C 76.0577,3899.04 285.954,3800.17 455.467,3705.8 2574.96,2525.91 4580.01,1388.08 6667.79,229.048 6798.46,156.507 7033.51,0.725907 7139.44,0 7252.63,-0.773167 7468.86,136.374 7611.09,215.594 9721.44,1390.5 11749.9,2536.46 13850.3,3705.8 c 165.3,92.1 382.8,189.56 417.7,323.37 26.9,2734.16 -86.2,5586.58 -40.4,8287.53" /></g><g
         transform="scale(1.79032)"
         id="g18"><path
           id="path20"
           style="fill:#000000;fill-opacity:1;fill-rule:nonzero;stroke:none"
           d="m 12175.3,16082.4 c 2.9,118.1 -204.6,217.6 -295.5,186.7 -308.2,-105 287.6,-509.7 295.5,-186.7" /></g><g
         transform="scale(1.76423)"
         id="g22"><path
           id="path24"
           style="fill:#000000;fill-opacity:1;fill-rule:nonzero;stroke:none"
           d="m 3942.76,16193.9 c -115.21,-25.5 -227.65,-116.8 -189.41,-236.7 98.25,-308.6 667.31,342.8 189.41,236.7" /></g><g
         transform="scale(1.67541)"
         id="g26"><path
           id="path28"
           style="fill:#000000;fill-opacity:1;fill-rule:nonzero;stroke:none"
           d="m 6162.84,16221.4 c -143.66,78.6 -369.6,-1.9 -349.03,-149.5 26.28,-189.2 464.23,-129.2 349.03,149.5" /></g><g
         transform="scale(1.68518)"
         id="g30"><path
           id="path32"
           style="fill:#000000;fill-opacity:1;fill-rule:nonzero;stroke:none"
           d="m 12026.2,15796.9 c 327.7,250.7 -652.1,503.1 -595,181.8 30.5,-171.2 388.8,-143.1 595,-181.8" /></g><g
         transform="scale(1.58043)"
         id="g34"><path
           id="path36"
           style="fill:#000000;fill-opacity:1;fill-rule:nonzero;stroke:none"
           d="m 5440.72,16244.8 c -154.51,55.2 -535.98,22.2 -510.86,-176.2 26.12,-206.6 641.61,-151 510.86,176.2" /></g><g
         transform="scale(1.54042)"
         id="g38"><path
           id="path40"
           style="fill:#000000;fill-opacity:1;fill-rule:nonzero;stroke:none"
           d="m 12993.6,16016 c 134.8,-119.8 547,-58.6 415.8,198.9 -153.6,85.1 -544,54.5 -415.8,-198.9" /></g><g
         transform="scale(1.15528)"
         id="g42"><path
           id="path44"
           style="fill:#000000;fill-opacity:1;fill-rule:nonzero;stroke:none"
           d="m 4912.18,15739.3 c 64.24,210 -299.23,560.7 -554.36,409.7 -169.97,-349.4 463.08,-708.4 554.36,-409.7" /></g><g
         transform="scale(1.47698)"
         id="g46"><path
           id="path48"
           style="fill:#000000;fill-opacity:1;fill-rule:nonzero;stroke:none"
           d="m 16247.7,12348.8 c -74.7,222 -484.9,-32.3 -358.2,-282.7 213.7,-133.9 410.5,127.3 358.2,282.7" /></g><g
         transform="scale(1.14248)"
         id="g50"><path
           id="path52"
           style="fill:#000000;fill-opacity:1;fill-rule:nonzero;stroke:none"
           d="m 1091.98,15355 c 199.94,20 232.56,358.1 170.62,609.3 -420.056,335.7 -545.714,-646.7 -170.62,-609.3" /></g><g
         transform="scale(1.59037)"
         id="g54"><path
           id="path56"
           style="fill:#000000;fill-opacity:1;fill-rule:nonzero;stroke:none"
           d="m 16192.3,10890.5 c 59,167.5 107.7,606.4 -157.6,402.8 -119.1,-91.4 -155.2,-494.3 -157.5,-612.8 197.2,-123.8 268.8,78.5 315.1,210" /></g><g
         transform="scale(1.05361)"
         id="g58"><path
           id="path60"
           style="fill:#000000;fill-opacity:1;fill-rule:nonzero;stroke:none"
           d="m 4487.64,15460.9 c 352.67,47.9 20.35,839.1 -290.66,713.6 -304.76,-122.9 36.17,-748.4 290.66,-713.6" /></g><g
         transform="scale(1.7165)"
         id="g62"><path
           id="path64"
           style="fill:#000000;fill-opacity:1;fill-rule:nonzero;stroke:none"
           d="m 16040.8,9490.11 c -183.2,-55 -130.4,-298.69 32.4,-308.19 226.8,-13.34 225.5,385.79 -32.4,308.19" /></g><path
         id="path66"
         style="fill:#000000;fill-opacity:1;fill-rule:nonzero;stroke:none"
         d="m 8960.85,8994.2 c -30.22,-234 425.65,-716.8 612.51,-389.8 90.2,464.9 -561.02,790.2 -612.51,389.8" /></g></g></svg>